<svg xmlns="http://www.w3.org/2000/svg" viewBox="0 0 140 140" id="Instagram"><path fill="#ceb630" d="M129.644 100.736c0 16.597-13.454 30.052-30.052 30.052H38.119c-16.6 0-30.052-13.455-30.052-30.052V39.264c0-16.598 13.452-30.052 30.052-30.052h61.473c16.598 0 30.052 13.455 30.052 30.052v61.472z" class="colorba30ce svgShape"></path><path fill="#ffda0d" d="M99.592 9.212H38.119c-16.6 0-30.052 13.455-30.052 30.052V70h121.576V39.264c.001-16.597-13.454-30.052-30.051-30.052z" class="colorff0da9 svgShape"></path><path fill="none" stroke="#3a3933" stroke-linecap="round" stroke-linejoin="round" stroke-miterlimit="10" stroke-width="3" d="M129.644 100.736c0 16.597-13.454 30.052-30.052 30.052H38.119c-16.6 0-30.052-13.455-30.052-30.052V39.264c0-16.598 13.452-30.052 30.052-30.052h61.473c16.598 0 30.052 13.455 30.052 30.052v61.472z" class="colorStroke33363a svgStroke"></path><path fill="#ceb630" d="M92.284 23.665c12.651 0 22.906 10.255 22.906 22.906v46.857c0 12.653-10.255 22.907-22.906 22.907H45.427c-12.651 0-22.906-10.253-22.906-22.907V46.571c0-12.651 10.255-22.906 22.906-22.906h46.857z" class="colorba30ce svgShape"></path><path fill="#ffda0d" d="M22.521 46.571v46.857c0 12.653 10.255 22.907 22.906 22.907h23.429v-92.67H45.427c-12.652 0-22.906 10.255-22.906 22.906z" class="colorff0da9 svgShape"></path><path fill="none" stroke="#3a3933" stroke-linecap="round" stroke-linejoin="round" stroke-miterlimit="10" stroke-width="3" d="M92.284 23.665c12.651 0 22.906 10.255 22.906 22.906v46.857c0 12.653-10.255 22.907-22.906 22.907H45.427c-12.651 0-22.906-10.253-22.906-22.907V46.571c0-12.651 10.255-22.906 22.906-22.906h46.857z" class="colorStroke33363a svgStroke"></path><path fill="#ffffff" d="M68.855 42.468c15.205 0 27.535 12.325 27.535 27.53 0 15.209-12.33 27.534-27.535 27.534S41.32 85.207 41.32 69.998c0-15.206 12.33-27.53 27.535-27.53z" class="colorffffff svgShape"></path><path fill="#fdeb87" d="M41.32 69.998c0-15.206 12.33-27.53 27.535-27.53S96.39 54.793 96.39 69.998" class="colorc7d5e0 svgShape"></path><path fill="none" stroke="#3a3933" stroke-linecap="round" stroke-linejoin="round" stroke-miterlimit="10" stroke-width="3" d="M68.855 42.468c15.205 0 27.535 12.325 27.535 27.53 0 15.209-12.33 27.534-27.535 27.534S41.32 85.207 41.32 69.998c0-15.206 12.33-27.53 27.535-27.53z" class="colorStroke33363a svgStroke"></path><circle cx="68.855" cy="70" r="18.367" fill="#ffffff" class="colorffffff svgShape"></circle><path fill="#fdeb87" d="M68.856 51.631C79 51.631 87.222 59.855 87.222 70c0 10.143-8.222 18.369-18.365 18.369" class="colorc7d5e0 svgShape"></path><circle cx="68.855" cy="70" r="18.367" fill="none" stroke="#3a3933" stroke-linecap="round" stroke-linejoin="round" stroke-miterlimit="10" stroke-width="3" class="colorStroke33363a svgStroke"></circle><circle cx="98.063" cy="42.071" r="4.138" fill="#fdeb87" class="colorc7d5e0 svgShape"></circle><path fill="#ffffff" d="M98.064 46.21a4.14 4.14 0 0 1 0-8.278" class="colorffffff svgShape"></path><circle cx="98.063" cy="42.071" r="4.138" fill="none" stroke="#3a3933" stroke-linecap="round" stroke-linejoin="round" stroke-miterlimit="10" stroke-width="3" class="colorStroke33363a svgStroke"></circle><path fill="none" stroke="#3a3933" stroke-linecap="round" stroke-linejoin="round" stroke-miterlimit="10" stroke-width="3" d="M131.933 130.788h-5.893M114.447 130.788H63.344M120.736 130.788h-1.099" class="colorStroke33363a svgStroke"></path></svg>