<svg xmlns="http://www.w3.org/2000/svg" xmlns:xlink="http://www.w3.org/1999/xlink" data-name="Layer 1" viewBox="0 0 128 128" id="Linkedin"><defs><clipPath id="b"><path fill="none" d="M227-153.91a12 12 0 0 1 6 1.61l37.16 21.45a12 12 0 0 1 6 10.39v42.91a12 12 0 0 1-6 10.39L233-45.7a12 12 0 0 1-6 1.61 12 12 0 0 1-6-1.61l-37.16-21.45a12 12 0 0 1-6-10.39v-42.91a12 12 0 0 1 6-10.39L221-152.3a12 12 0 0 1 6-1.61m0-8a20 20 0 0 0-10 2.68l-37.16 21.45a20 20 0 0 0-10 17.32v42.91a20 20 0 0 0 10 17.32L217-38.77a20 20 0 0 0 10 2.68 20 20 0 0 0 10-2.68l37.16-21.45a20 20 0 0 0 10-17.32v-42.91a20 20 0 0 0-10-17.32L237-159.23a20 20 0 0 0-10-2.68Z"></path></clipPath><clipPath id="c"><path fill="none" d="M227-115a16 16 0 0 0-16 16 16 16 0 0 0 16 16 16 16 0 0 0 16-16 16 16 0 0 0-16-16Zm0 24a8 8 0 0 1-8-8 8 8 0 0 1 8-8 8 8 0 0 1 8 8 8 8 0 0 1-8 8Z"></path></clipPath><clipPath id="e"><path fill="none" d="M247-63h-40a16 16 0 0 1-16-16v-40a16 16 0 0 1 16-16h40a16 16 0 0 1 16 16v40a16 16 0 0 1-16 16Zm-40-64a8 8 0 0 0-8 8v40a8 8 0 0 0 8 8h40a8 8 0 0 0 8-8v-40a8 8 0 0 0-8-8Z"></path></clipPath><clipPath id="f"><circle cx="245" cy="-117" r="5" fill="none"></circle></clipPath><radialGradient id="a" cx="190.5" cy="-41.5" r="137.5" gradientUnits="userSpaceOnUse"><stop offset="0" stop-color="#fdeb87" class="stopColorffd676 svgShape"></stop><stop offset=".25" stop-color="#f2da54" class="stopColorf2a454 svgShape"></stop><stop offset=".38" stop-color="#f0d53c" class="stopColorf05c3c svgShape"></stop><stop offset=".7" stop-color="#c2ac2f" class="stopColorc22f86 svgShape"></stop><stop offset=".96" stop-color="#ada266" class="stopColor6666ad svgShape"></stop><stop offset=".99" stop-color="#b2a55c" class="stopColor5c6cb2 svgShape"></stop></radialGradient><radialGradient id="d" cx="190.5" cy="-41.5" r="148.5" xlink:href="#a"></radialGradient><radialGradient id="g" cx="176.87" cy="-22.62" r="185.63" xlink:href="#a"></radialGradient></defs><g clip-path="url(#b)" fill="#000000" class="color000000 svgShape"><circle cx="190.5" cy="-41.5" r="137.5" fill="url(#a)"></circle></g><g clip-path="url(#c)" fill="#000000" class="color000000 svgShape"><circle cx="190.5" cy="-41.5" r="148.5" fill="url(#d)"></circle></g><g clip-path="url(#e)" fill="#000000" class="color000000 svgShape"><circle cx="190.5" cy="-41.5" r="148.5" fill="url(#d)"></circle></g><g clip-path="url(#f)" fill="#000000" class="color000000 svgShape"><circle cx="176.87" cy="-22.62" r="185.63" fill="url(#g)"></circle></g><path fill="#b59a01" d="M6.84 42.55v42.9a20 20 0 0 0 10 17.32L54 124.23a20 20 0 0 0 20 0l37.16-21.45a20 20 0 0 0 10-17.32V42.55a20 20 0 0 0-10-17.32L74 3.77a20 20 0 0 0-20 0L16.84 25.23a20 20 0 0 0-10 17.32Z" class="color0177b5 svgShape"></path><path fill="#ffffff" d="M92 32H36a4 4 0 0 0-4 4v56a4 4 0 0 0 4 4h56a4 4 0 0 0 4-4V36a4 4 0 0 0-4-4ZM52 86H42V56h10Zm-5-34a6 6 0 1 1 6-6 6 6 0 0 1-6 6Zm39 34H76V66c0-1.66-2.24-3-5-3-4 0-5 5.34-5 7v16H56V56h10v7c0-5 4.48-7 10-7a10 10 0 0 1 10 10Z" class="colorffffff svgShape"></path></svg>